<svg width="68" height="75" viewBox="0 0 68 75" fill="none" xmlns="http://www.w3.org/2000/svg">
<g filter="url(#filter0_d_268_149)">
<path d="M58.6233 5.12257C61.0448 6.78079 63.0597 8.64984 63.7661 11.5802C64.0329 12.6877 64.0685 13.8238 63.8879 14.8975C63.2572 18.6472 62.8987 22.42 62.6701 26.2097C62.4468 29.9113 60.3624 32.46 57.4917 34.4714C53.8114 37.0504 49.6241 38.5502 45.4216 40.0012C45.0595 40.1257 44.6939 40.2396 44.3309 40.3597C42.7795 40.8748 42.7955 40.881 43.3871 42.4707C44.8167 46.3147 46.2365 50.1604 47.1981 54.1609C47.5095 55.4571 47.2399 56.4561 46.2721 57.3786C43.2465 60.2636 40.2672 63.1975 37.2577 66.0994C35.9553 67.3555 34.5 66.9241 33.0748 66.3752C29.7744 65.103 26.6768 63.4146 23.637 61.6265C17.5255 58.0307 11.4451 54.3807 5.35128 50.7538C3.80427 49.833 3.8016 49.7583 4.2802 47.996C5.32371 44.1476 6.35653 40.2956 7.34221 36.4312C7.55749 35.587 8.00941 35.2009 8.82606 35.095C11.5171 34.7436 14.2562 34.797 16.9117 34.1734C19.1454 33.6485 21.4495 33.467 23.6433 32.7402C25.0079 32.2874 25.1271 32.1389 24.6494 30.8009C23.5552 27.738 22.6665 24.6093 21.8276 21.4726C21.3054 19.5199 20.9994 17.5263 21.413 15.4553C21.8231 13.4039 22.6887 11.6451 24.3185 10.3855C27.9587 7.57253 31.591 4.73648 35.3744 2.12462C38.7923 -0.235497 42.7252 -0.321789 46.6679 0.39434C50.9264 1.16651 54.8665 2.81406 58.6233 5.12257ZM55.3656 23.306C56.5185 22.7643 57.5095 21.9796 58.5219 21.2235C59.8269 20.2485 59.8545 20.0439 58.8644 18.7788C57.1786 16.6251 55.0373 15.0648 52.6452 13.7793C49.3438 12.0054 46.1795 9.95933 42.5268 8.91583C39.6338 8.08939 36.7124 7.63925 33.694 7.97641C32.9343 8.06092 32.6016 8.39186 32.6122 9.14802C32.6273 10.22 32.5571 11.2902 32.7314 12.3613C33.629 17.8866 36.2009 22.8096 38.2719 27.9124C38.5103 28.4995 38.899 28.6792 39.552 28.4755C40.7192 28.1108 41.913 27.8296 43.0997 27.5272C47.2488 26.4694 51.4308 25.5113 55.3656 23.306ZM29.3536 44.2577C27.7524 43.457 26.24 44.7025 25.5212 45.6341C26.0416 45.9232 29.5316 47.6826 30.342 48.0965C30.688 46.9709 31.2218 45.1917 29.3536 44.2577Z" fill="#B3E429"/>
</g>
<defs>
<filter id="filter0_d_268_149" x="0" y="0" width="68" height="74.9154" filterUnits="userSpaceOnUse" color-interpolation-filters="sRGB">
<feFlood flood-opacity="0" result="BackgroundImageFix"/>
<feColorMatrix in="SourceAlpha" type="matrix" values="0 0 0 0 0 0 0 0 0 0 0 0 0 0 0 0 0 0 127 0" result="hardAlpha"/>
<feOffset dy="4"/>
<feGaussianBlur stdDeviation="2"/>
<feComposite in2="hardAlpha" operator="out"/>
<feColorMatrix type="matrix" values="0 0 0 0 0 0 0 0 0 0 0 0 0 0 0 0 0 0 0.25 0"/>
<feBlend mode="normal" in2="BackgroundImageFix" result="effect1_dropShadow_268_149"/>
<feBlend mode="normal" in="SourceGraphic" in2="effect1_dropShadow_268_149" result="shape"/>
</filter>
</defs>
</svg>
